<!DOCTYPE svg PUBLIC "-//W3C//DTD SVG 1.1//EN" "http://www.w3.org/Graphics/SVG/1.1/DTD/svg11.dtd">
<svg width="106.01mm" height="22.65mm" viewBox="0 0 106.01 22.65" xmlns="http://www.w3.org/2000/svg" version="1.1" xmlns:xlink="http://www.w3.org/1999/xlink">
<title>Airfoil plot (user-000) NACA 2412 Airfoil M=2.0% P=40.0% T=12.0% by AirfoilTools.com</title>
<g transform="translate(3,10.9198)"><g transform="scale(1,-1)"><line fill="none" stroke="green" stroke-width="0.05" x1="10" x2="10" y1="-7.23" y2="10.92"></line><line fill="none" stroke="green" stroke-width="0.05" x1="20" x2="20" y1="-7.23" y2="10.92"></line><line fill="none" stroke="green" stroke-width="0.05" x1="30" x2="30" y1="-7.23" y2="10.92"></line><line fill="none" stroke="green" stroke-width="0.05" x1="40" x2="40" y1="-7.23" y2="10.92"></line><line fill="none" stroke="green" stroke-width="0.05" x1="50" x2="50" y1="-7.23" y2="10.92"></line><line fill="none" stroke="green" stroke-width="0.05" x1="60" x2="60" y1="-7.23" y2="10.92"></line><line fill="none" stroke="green" stroke-width="0.05" x1="70" x2="70" y1="-7.23" y2="10.92"></line><line fill="none" stroke="green" stroke-width="0.05" x1="80" x2="80" y1="-7.23" y2="10.92"></line><line fill="none" stroke="green" stroke-width="0.05" x1="90" x2="90" y1="-7.23" y2="10.92"></line><line fill="none" stroke="green" stroke-width="0.05" x1="100" x2="100" y1="-7.23" y2="10.92"></line><line fill="none" stroke="green" stroke-width="0.05" x1="-3" x2="103.01" y1="10" y2="10"></line>
<path fill="none" stroke="red" stroke-width="0.1" d="M 100.01 0.13 L 99.86 0.16 L 99.4 0.25 L 98.64 0.41 L 97.58 0.62 L 96.23 0.89 L 94.6 1.21 L 92.7 1.57 L 90.53 1.98 L 88.11 2.41 L 85.46 2.87 L 82.58 3.34 L 79.51 3.83 L 76.25 4.31 L 72.82 4.8 L 69.26 5.27 L 65.57 5.73 L 61.78 6.16 L 57.92 6.56 L 54 6.92 L 50.06 7.24 L 46.11 7.5 L 42.19 7.71 L 38.3 7.86 L 34.47 7.92 L 30.73 7.89 L 27.11 7.78 L 23.64 7.58 L 20.33 7.29 L 17.22 6.93 L 14.31 6.49 L 11.63 5.99 L 9.2 5.43 L 7.03 4.83 L 5.13 4.18 L 3.52 3.51 L 2.21 2.82 L 1.19 2.11 L 0.48 1.4 L 0.09 0.7 L 0 0 L 0.22 -0.67 L 0.75 -1.28 L 1.57 -1.84 L 2.69 -2.34 L 4.09 -2.78 L 5.77 -3.17 L 7.71 -3.49 L 9.9 -3.75 L 12.33 -3.95 L 14.98 -4.1 L 17.84 -4.19 L 20.89 -4.23 L 24.11 -4.23 L 27.49 -4.18 L 31 -4.1 L 34.63 -3.99 L 38.35 -3.86 L 42.16 -3.72 L 46.04 -3.54 L 49.94 -3.35 L 53.85 -3.14 L 57.73 -2.91 L 61.57 -2.68 L 65.34 -2.45 L 69.01 -2.22 L 72.58 -1.99 L 76 -1.76 L 79.27 -1.55 L 82.36 -1.34 L 85.25 -1.15 L 87.93 -0.97 L 90.37 -0.8 L 92.57 -0.65 L 94.5 -0.52 L 96.15 -0.4 L 97.52 -0.3 L 98.6 -0.23 L 99.37 -0.17 L 99.84 -0.14 L 99.99 -0.13 "></path>
<path fill="none" stroke="blue" stroke-width="0.1" d="M 0 0 L 100 0 "></path>
<line fill="none" stroke="black" stroke-width="0.1" x1="-3" x2="103.01" y1="0" y2="0"></line>
<line fill="none" stroke="black" stroke-width="0.1" x1="0" x2="0" y1="-7.23" y2="10.92"></line>
</g>
</g>
<g transform="translate(0,18.1544)"><g transform="scale(1,1)"><text fill="rgb(48,48,144)" font-size="1.8" style="font-family:Arial,Helvetica,sans-serif;" x="1" y="2">Name = NACA 2412 Airfoil M=2.0% P=40.0% T=12.0%</text><text fill="rgb(48,48,144)" font-size="1.8" style="font-family:Arial,Helvetica,sans-serif;" x="1" y="4">Chord = 100mm  Radius = 0mm  Thickness = 100%  Origin = 0%  Pitch = 0&#176; </text></g></g></svg>